PathFileType	4	(X/Y/Z)	Exemple_fichier.trc																																																																																																																															
DataRate	CameraRate	NumFrames	NumMarkers	Units	OrigDataRate	OrigDataStartFrame	OrigNumFrames																																																																																																																											
200	200	4	43	mm	200	1001	2000																																																																																																																											
Frame#	Time	LFHD			RFHD			RBHD			LBHD			C7			T10			R10			CLAV			STRN			LSHO			LUPA			LELB			LFRA			LWRA			LWRB			LFIN0			LFINx			LFINy			RSHO			RUPA			RELB			RFRA			RWRA			RWRB			RFIN0			RFINx			RFINy			LASI			RASI			RBSI			LBSI			LTHI			LKNE			LTIB			LANK			LHEE			LTOE			RTHI			RKNE			RTIB			RANK			RHEE			RTOE		
		X1	Y1	Z1	X2	Y2	Z2	X3	Y3	Z3	X4	Y4	Z4	X5	Y5	Z5	X6	Y6	Z6	X7	Y7	Z7	X8	Y8	Z8	X9	Y9	Z9	X10	Y10	Z10	X11	Y11	Z11	X12	Y12	Z12	X13	Y13	Z13	X14	Y14	Z14	X15	Y15	Z15	X16	Y16	Z16	X17	Y17	Z17	X18	Y18	Z18	X19	Y19	Z19	X20	Y20	Z20	X21	Y21	Z21	X22	Y22	Z22	X23	Y23	Z23	X24	Y24	Z24	X25	Y25	Z25	X26	Y26	Z26	X27	Y27	Z27	X28	Y28	Z28	X29	Y29	Z29	X30	Y30	Z30	X31	Y31	Z31	X32	Y32	Z32	X33	Y33	Z33	X34	Y34	Z34	X35	Y35	Z35	X36	Y36	Z36	X37	Y37	Z37	X38	Y38	Z38	X39	Y39	Z39	X40	Y40	Z40	X41	Y41	Z41	X42	Y42	Z42	X43	Y43	Z43
																																																																																																																																		
1001	5	403.36798	320.19949	1436.3905	507.66263	312.9285	1428.47656	505.95413	162.91391	1410.02136	396.02939	165.10352	1419.02563	442.91931	106.91741	1295.62183	445.29022	67.73856	1155.8634	604.81323	104.14428	1189.56067	451.87897	226.82936	1228.12646	449.86963	328.22141	1094.97876	299.47824	193.19066	1253.53552	240.73187	237.08609	1103.53674	206.21983	252.57027	962.21606	246.43262	358.85733	979.08606	304.55627	456.56357	970.35992	299.35648	455.49585	923.52789	336.3645	486.73285	919.75232	352.25024	499.7059	921.03491	331.99979	497.94366	953.07819	598.22083	175.3656	1253.38123	701.26703	227.44679	1073.51721	748.70526	219.57942	1008.62646	641.03467	355.43857	993.57825	586.85242	382.29727	990.92682	611.39447	398.76459	952.76465	559.33282	424.36832	930.3681	541.04565	432.82565	926.22577	551.4635	431.06631	960.4577	323.7886	265.79752	892.28693	558.57294	278.25714	887.2038	483.87775	99.97235	912.7666	411.92236	99.38524	914.51288	344.79178	295.85287	633.6546	299.24072	160.09441	448.5712	323.14429	195.91013	323.55582	309.31644	124.26108	81.48151	356.85236	88.5546	15.38071	288.78555	329.03699	50.10453	540.15295	285.04556	556.1687	612.44214	176.36116	439.71469	589.07501	194.99086	236.56383	608.37256	144.40399	75.97007	572.12512	93.26056	14.72074	612.32599	339.2626	47.81855
1002	5.005	403.34839	320.22305	1436.35596	507.62994	312.892	1428.45984	505.79059	162.7753	1409.95398	395.99405	165.1246	1419.03613	442.78772	106.84516	1295.62231	445.25381	67.59309	1155.81714	604.19348	104.53061	1189.3457	451.7413	226.74942	1228.125	449.78348	328.1546	1094.93518	299.38248	193.08488	1253.49329	240.73079	237.19603	1103.49805	206.2863	252.68822	962.22839	246.38858	358.99817	978.98645	304.43369	456.72174	970.17188	299.24231	455.65298	923.29352	336.24844	486.68143	919.60663	352.32642	499.63113	920.90167	332.1066	498.15253	952.8858	598.16266	175.35329	1253.39197	701.96838	227.74599	1074.34375	749.70679	220.0788	1009.55762	642.56238	356.36493	994.23468	588.41553	383.36288	991.60077	612.89215	399.55545	953.1134	560.55115	424.43469	930.46777	542.15063	432.60513	926.29828	553.41785	431.91092	960.9201	323.67667	265.79724	892.29944	558.44098	278.16129	887.17053	483.76907	99.96215	912.70117	411.80435	99.34805	914.51959	344.78427	295.87509	633.65759	299.16153	160.09265	448.58655	323.07214	195.97237	323.62262	309.31644	124.26108	81.48151	356.81573	88.51257	15.27657	288.80084	329.05042	50.11152	540.10693	285.03467	556.14313	612.41888	176.36951	439.74554	589.04895	194.97797	236.63629	608.37518	144.37047	75.96715	572.12317	93.22485	14.69861	612.29144	339.30057	47.8697
1003	5.01	403.32089	320.22485	1436.31189	507.58768	312.81729	1428.38403	505.75507	162.71284	1409.93567	395.87167	165.0787	1419.0741	442.76328	106.81272	1295.65356	445.20538	67.40642	1155.76624	604.17328	104.61154	1189.32593	451.69324	226.74173	1228.13562	449.70743	328.13434	1094.91602	299.3844	193.04597	1253.48523	240.716	237.32056	1103.50964	206.37964	252.77017	962.16632	246.29333	359.22763	978.87402	304.18011	456.94547	970.04102	299.13666	455.83109	923.07898	336.30338	486.72653	919.48541	352.45166	499.60962	920.62378	332.17261	498.39014	952.53369	598.1604	175.36891	1253.44299	702.72412	228.07828	1075.13855	750.82898	220.43135	1010.56848	644.10535	357.26453	994.92889	590.11676	384.40997	992.31897	614.82233	400.42044	953.65948	561.70563	424.54462	930.68481	543.39191	432.50229	926.3949	554.06384	431.75293	960.61151	323.62222	265.84912	892.27484	558.35236	278.01041	887.13477	483.5936	99.96503	912.70435	411.66251	99.35621	914.52466	344.76401	295.87564	633.64661	299.11319	160.1111	448.58746	323.07214	195.97237	323.62262	309.31644	124.26108	81.48151	356.85556	88.61642	15.32292	288.79269	329.043	50.11255	540.05536	285.03595	556.14667	612.34613	176.33694	439.75153	589.0589	194.92285	236.5912	608.34375	144.36465	75.96666	572.12317	93.22485	14.69861	612.40247	339.29471	47.83733
1004	5.015	403.31644	320.20355	1436.29175	507.50577	312.77539	1428.31763	505.6507	162.59286	1410.01111	395.87167	165.0787	1419.0741	442.72192	106.75793	1295.62317	445.10568	67.25827	1155.83862	604.00208	104.7422	1189.27795	451.65161	226.69061	1228.14233	449.66882	328.12738	1094.93481	299.30032	192.98669	1253.4707	240.71907	237.3994	1103.50439	206.44789	252.89165	962.1828	246.19461	359.44937	978.72443	304.12506	457.2923	969.81866	299.12735	455.91302	922.92212	336.34958	486.87131	919.20605	352.54761	499.54727	920.46979	332.11392	498.59442	952.34814	598.04572	175.3537	1253.46875	703.44293	228.26022	1075.99658	751.87006	220.92352	1011.55438	645.69543	358.11765	995.60608	591.79211	385.49512	993.04865	616.14435	401.12302	954.07391	563.06232	424.81268	930.99078	544.62439	432.51517	926.55676	555.29163	432.32507	960.76331	323.53598	265.86258	892.28986	558.32104	278.00711	887.11237	483.41135	99.93487	912.76349	411.48895	99.38564	914.55225	344.69046	295.88739	633.69342	299.05267	160.12706	448.59589	323.04324	195.98604	323.59958	309.26764	124.16547	81.51928	356.82474	88.55614	15.29536	288.81055	329.01517	50.09273	539.9881	285.0141	556.06689	612.24622	176.33453	439.71436	589.03979	194.99443	236.5968	608.37518	144.37047	75.96715	572.12317	93.22485	14.69861	612.33435	339.2879	47.8081
